<?xml version="1.0" encoding="UTF-8"?>
<svg width="16px" height="16px" viewBox="0 0 16 16" version="1.1" xmlns="http://www.w3.org/2000/svg" xmlns:xlink="http://www.w3.org/1999/xlink">
    <title>2</title>
    <g id="页面-1" stroke="none" stroke-width="1" fill="none" fill-rule="evenodd">
        <g id="帅帅人生" transform="translate(-613.000000, -527.000000)" fill="#EAEAEA">
            <g id="工作" transform="translate(523.000000, 184.000000)">
                <path d="M106,348 L106,357 C106,358.104569 105.104569,359 104,359 L92,359 C90.8954305,359 90,358.104569 90,357 L90,348 L106,348 Z M102.585786,354.585786 L101.87868,355.292893 L102.585,356 L101.87868,356.707107 L102.585786,357.414214 L104,356 L102.585786,354.585786 Z M99.5857864,354.585786 L98.8786797,355.292893 L99.585,356 L98.8786797,356.707107 L99.5857864,357.414214 L101,356 L99.5857864,354.585786 Z M104,343 C105.104569,343 106,343.895431 106,345 L106,347 L90,347 L90,345 C90,343.895431 90.8954305,343 92,343 L104,343 Z M92.5,344.5 C92.2238576,344.5 92,344.723858 92,345 C92,345.276142 92.2238576,345.5 92.5,345.5 C92.7761424,345.5 93,345.276142 93,345 C93,344.723858 92.7761424,344.5 92.5,344.5 Z M94.5,344.5 C94.2238576,344.5 94,344.723858 94,345 C94,345.276142 94.2238576,345.5 94.5,345.5 C94.7761424,345.5 95,345.276142 95,345 C95,344.723858 94.7761424,344.5 94.5,344.5 Z M96.5,344.5 C96.2238576,344.5 96,344.723858 96,345 C96,345.276142 96.2238576,345.5 96.5,345.5 C96.7761424,345.5 97,345.276142 97,345 C97,344.723858 96.7761424,344.5 96.5,344.5 Z" id="2"></path>
            </g>
        </g>
    </g>
</svg>