<?xml version="1.0" encoding="UTF-8"?>
<svg width="16px" height="16px" viewBox="0 0 16 16" version="1.1" xmlns="http://www.w3.org/2000/svg" xmlns:xlink="http://www.w3.org/1999/xlink">
    <title>3</title>
    <g id="页面-1" stroke="none" stroke-width="1" fill="none" fill-rule="evenodd">
        <g id="帅帅人生" transform="translate(-613.000000, -346.000000)" fill="#EAEAEA">
            <g id="工作" transform="translate(523.000000, 184.000000)">
                <path d="M104,162 C105.104569,162 106,162.895431 106,164 L106,176 C106,177.104569 105.104569,178 104,178 L92,178 C90.8954305,178 90,177.104569 90,176 L90,164 C90,162.895431 90.8954305,162 92,162 L104,162 Z M99,168 L97,168 L96,172.5 L98,175 L100,172.5 L99,168 Z M100,165 L96,165 L96.5,167 L99.5,167 L100,165 Z" id="3"></path>
            </g>
        </g>
    </g>
</svg>