<?xml version="1.0" encoding="UTF-8"?>
<svg width="16px" height="16px" viewBox="0 0 16 16" version="1.1" xmlns="http://www.w3.org/2000/svg" xmlns:xlink="http://www.w3.org/1999/xlink">
    <title>1</title>
    <g id="页面-1" stroke="none" stroke-width="1" fill="none" fill-rule="evenodd">
        <g id="帅帅人生" transform="translate(-613.000000, -306.000000)" fill="#EAEAEA">
            <g id="工作" transform="translate(523.000000, 184.000000)">
                <path d="M106,131 L106,138 L90,138 L90,131 L90.4703257,131.170511 C95.5019678,132.932459 100.99834,132.875622 106,131 Z M101,122 C101.552285,122 102,122.447715 102,123 L102,125 L106,125 L106,130 C100.99834,131.875622 95.5019678,131.932459 90.4703257,130.170511 L90,130 L90,125 L94,125 L94,123 C94,122.447715 94.4477153,122 95,122 L101,122 Z M100.25,123.5 L95.75,123.5 C95.6119288,123.5 95.5,123.611929 95.5,123.75 L95.5,125 L100.5,125 L100.5,123.75 C100.5,123.611929 100.388071,123.5 100.25,123.5 Z" id="1"></path>
            </g>
        </g>
    </g>
</svg>